<svg width="110" height="139" viewBox="0 0 110 139" fill="none" xmlns="http://www.w3.org/2000/svg">
<path d="M40.3811 97.6293C33.7932 97.6293 25.7071 92.9621 22.4131 87.2713L7.79419 61.9652C4.50025 56.2634 4.50025 46.9401 7.79419 41.2383L22.4131 15.9322C25.7071 10.2304 33.7932 5.57422 40.3811 5.57422H69.6189C76.2068 5.57422 84.2929 10.2414 87.5869 15.9322L102.206 41.2383C105.5 46.9401 105.5 56.2634 102.206 61.9652L87.5869 87.2713C84.2929 92.9731 76.2068 97.6293 69.6189 97.6293H40.3811Z" fill="#A9A9A9"/>
<path d="M29.1039 99.7077C32.7356 101.569 36.6994 102.678 40.3753 102.678V102.689H69.6132C73.3479 102.689 77.3798 101.544 81.0586 99.6289L93.4639 121.178L76.8612 116.933L72.2253 133.465L55.3181 104.106L38.1322 133.465L33.4182 116.933L16.5356 121.178L29.1039 99.7077Z" fill="#A9A9A9"/>
<path d="M86.4477 51.5648C86.4477 54.2613 83.1135 56.4838 82.4455 58.9697C81.7564 61.5398 83.5004 65.1212 82.1911 67.37C80.8606 69.6558 76.8584 69.9296 74.9925 71.7835C73.1266 73.6373 72.851 77.6137 70.5504 78.9356C68.287 80.2365 64.6824 78.5037 62.0956 79.1884C59.5936 79.852 57.3566 83.1647 54.6426 83.1647C51.9285 83.1647 49.6915 79.852 47.1895 79.1884C44.6027 78.5037 40.9981 80.2365 38.7347 78.9356C36.4341 77.6137 36.1585 73.6373 34.2926 71.7835C32.4267 69.9296 28.4245 69.6558 27.094 67.37C25.7847 65.1212 27.5287 61.5398 26.8396 58.9697C26.1716 56.4838 22.8374 54.2613 22.8374 51.5648C22.8374 48.8683 26.1716 46.6457 26.8396 44.1599C27.5287 41.5897 25.7847 38.0084 27.094 35.7595C28.4245 33.4738 32.4267 33.2 34.2926 31.3461C36.1585 29.4922 36.4341 25.5159 38.7347 24.194C40.9981 22.8931 44.6027 24.6258 47.1895 23.9412C49.6915 23.2776 51.9285 19.9648 54.6426 19.9648C57.3566 19.9648 59.5936 23.2776 62.0956 23.9412C64.6824 24.6258 68.287 22.8931 70.5504 24.194C72.851 25.5159 73.1266 29.4922 74.9925 31.3461C76.8584 33.2 80.8606 33.4738 82.1911 35.7595C83.5004 38.0084 81.7564 41.5897 82.4455 44.1599C83.1135 46.6457 86.4477 48.8683 86.4477 51.5648Z" fill="white"/>
<path d="M65.0001 40.9868L51.3615 54.6479L44.2914 47.5721C43.554 46.834 42.5542 46.4193 41.5117 46.4193C40.4692 46.4193 39.4693 46.834 38.732 47.5721C37.995 48.3107 37.5811 49.3122 37.5811 50.3564C37.5811 51.4006 37.995 52.4021 38.732 53.1406L48.6505 63.0755C49.3682 63.7935 50.3411 64.1969 51.3555 64.1969C52.3699 64.1969 53.3429 63.7935 54.0606 63.0755L70.5535 46.5553C71.2905 45.8167 71.7045 44.8153 71.7045 43.7711C71.7045 42.7268 71.2905 41.7254 70.5535 40.9868C70.189 40.6213 69.7562 40.3314 69.2797 40.1336C68.8033 39.9358 68.2926 39.834 67.7768 39.834C67.2611 39.834 66.7504 39.9358 66.274 40.1336C65.7975 40.3314 65.3647 40.6213 65.0001 40.9868Z" fill="#A9A9A9"/>
</svg>
