<svg width="22" height="22" viewBox="0 0 22 22" fill="none" xmlns="http://www.w3.org/2000/svg">
<path d="M5.72846 8.24742C5.80149 8.16902 5.88838 8.1068 5.98412 8.06433C6.07985 8.02186 6.18254 8 6.28625 8C6.38996 8 6.49265 8.02186 6.58838 8.06433C6.68412 8.1068 6.77101 8.16902 6.84404 8.24742L10.4422 12.0784C10.5152 12.1568 10.6021 12.219 10.6979 12.2615C10.7936 12.3039 10.8963 12.3258 11 12.3258C11.1037 12.3258 11.2064 12.3039 11.3021 12.2615C11.3979 12.219 11.4848 12.1568 11.5578 12.0784L15.156 8.24742C15.229 8.16902 15.3159 8.10679 15.4116 8.06433C15.5074 8.02186 15.61 8 15.7138 8C15.8175 8 15.9201 8.02186 16.0159 8.06433C16.1116 8.10679 16.1985 8.16902 16.2715 8.24742C16.4179 8.40414 16.5 8.61614 16.5 8.83712C16.5 9.0581 16.4179 9.2701 16.2715 9.42682L12.6655 13.2661C12.2236 13.7361 11.6246 14 11 14C10.3754 14 9.77639 13.7361 9.33448 13.2661L5.72846 9.42682C5.58213 9.2701 5.5 9.0581 5.5 8.83712C5.5 8.61614 5.58213 8.40414 5.72846 8.24742Z" fill="#999EAD"/>
</svg>
